<svg width="222" height="53" viewBox="0 0 222 53" fill="none" xmlns="http://www.w3.org/2000/svg">
<path d="M62.1189 0.988615L63.7137 2.44165C61.7999 6.00925 58.5158 7.79305 53.8614 7.79305C53.2944 7.79305 52.4674 7.7458 51.3806 7.65129C48.6163 10.8409 46.8916 15.6489 46.2064 22.0753C46.0647 23.422 45.982 24.7096 45.9583 25.9382L55.1727 25.5838L52.6919 28.6316H45.8166C45.1314 38.1531 40.6306 45.0402 32.314 49.293C27.5415 51.7265 22.0956 52.9433 15.9763 52.9433C12.2197 52.9433 8.8529 52.2109 5.87596 50.746C4.36386 50.0136 3.14709 49.0095 2.22566 47.7337C1.32785 46.4578 0.87895 44.9339 0.87895 43.1619C0.87895 41.3899 1.24516 39.807 1.97758 38.413C2.71 37.019 3.63144 35.944 4.74188 35.188C5.85233 34.4083 7.24629 33.794 8.92378 33.3451C11.5699 32.6127 14.9367 32.2465 19.0241 32.2465C16.3543 28.7498 15.0194 25.1231 15.0194 21.3665C15.0194 18.6258 15.6928 15.956 17.0395 13.3571C18.3862 10.7582 20.1582 8.51366 22.3554 6.62354C24.5763 4.70979 27.1753 3.18588 30.1522 2.05181C33.1528 0.894109 35.9407 0.315259 38.516 0.315259C41.1149 0.315259 44.3754 0.823229 48.2974 1.83917C52.243 2.85511 55.1372 3.36308 56.9801 3.36308C58.823 3.36308 60.5359 2.57159 62.1189 0.988615ZM5.87596 39.4762C5.35617 40.5866 5.09628 41.827 5.09628 43.1974C5.09628 44.5677 5.47431 45.749 6.23035 46.7414C6.9864 47.71 7.95509 48.4661 9.13642 49.0095C11.4754 50.0727 14.0507 50.6043 16.8623 50.6043C19.6738 50.6043 22.3436 50.2145 24.8717 49.4348C27.3997 48.6315 29.6679 47.3793 31.6761 45.6782C35.8344 42.1814 38.4333 36.4756 39.4729 28.5608H31.8533L33.2709 26.2926L39.7209 25.9382C40.0517 22.9376 40.6424 20.445 41.4929 18.4604C42.3435 16.4758 43.0523 14.9401 43.6193 13.8533C44.21 12.7664 44.7888 11.8214 45.3559 11.0181C46.3009 9.64773 47.2932 8.36009 48.3328 7.15513C44.7179 5.64304 41.2685 4.88699 37.9844 4.88699C34.7239 4.88699 31.9596 5.22957 29.6915 5.91474C27.4233 6.59991 25.3796 7.60404 23.5604 8.92712C21.7412 10.2266 20.2999 11.9513 19.2367 14.1013C18.1736 16.2513 17.642 18.6967 17.642 21.4374C17.642 24.1308 18.0554 26.2335 18.8824 27.7456C19.2131 28.3363 19.4966 28.8443 19.7329 29.2695C19.9692 29.6948 20.359 30.1792 20.9024 30.7226C21.4695 31.2424 21.9065 31.6558 22.2137 31.963C22.5445 32.2701 23.0761 32.6954 23.8085 33.2388C24.7772 33.924 25.6513 34.5264 26.431 35.0462C27.2107 35.566 27.6242 35.8495 27.6714 35.8968C27.7187 35.9204 27.7659 35.944 27.8132 35.9677L26.7854 37.2789C22.9343 35.3888 19.6148 34.4438 16.8268 34.4438C11.1329 34.4438 7.48256 36.1212 5.87596 39.4762ZM47.9745 42.9847C47.9745 41.2128 48.3997 39.5116 49.2503 37.8814C50.1245 36.2276 51.2467 34.8336 52.6171 33.6995C55.6413 31.2424 58.7245 30.0138 61.8669 30.0138C65.0092 30.0138 67.5845 30.8525 69.5927 32.53C71.601 34.2075 72.6051 36.3102 72.6051 38.8383C72.6051 41.3427 71.9081 43.599 70.5142 45.6073C69.1438 47.6155 67.3246 49.1867 65.0564 50.3208C62.7883 51.4312 60.3075 51.9864 57.6141 51.9864C54.9443 51.9864 52.6643 51.1477 50.7742 49.4702C48.9077 47.7691 47.9745 45.6073 47.9745 42.9847ZM59.5633 49.7892C60.6501 49.7892 61.666 49.4348 62.6111 48.726C63.5798 48.0172 64.3122 47.0958 64.8084 45.9617C65.777 43.788 66.2614 41.5435 66.2614 39.2281C66.2614 36.9127 65.8361 35.1644 64.9856 33.983C64.135 32.7781 62.93 32.1756 61.3707 32.1756C59.8113 32.1756 58.2638 33.1915 56.7281 35.2234C55.216 37.2553 54.4599 39.8424 54.4599 42.9847C54.4599 47.521 56.161 49.7892 59.5633 49.7892ZM77.4919 42.9847C77.4919 41.2128 77.9171 39.5116 78.7677 37.8814C79.6419 36.2276 80.7641 34.8336 82.1345 33.6995C85.1587 31.2424 88.2419 30.0138 91.3842 30.0138C94.5266 30.0138 97.1019 30.8525 99.1101 32.53C101.118 34.2075 102.122 36.3102 102.122 38.8383C102.122 41.3427 101.426 43.599 100.032 45.6073C98.6612 47.6155 96.842 49.1867 94.5738 50.3208C92.3057 51.4312 89.8249 51.9864 87.1315 51.9864C84.4617 51.9864 82.1817 51.1477 80.2916 49.4702C78.4251 47.7691 77.4919 45.6073 77.4919 42.9847ZM89.0807 49.7892C90.1675 49.7892 91.1834 49.4348 92.1285 48.726C93.0972 48.0172 93.8296 47.0958 94.3257 45.9617C95.2944 43.788 95.7788 41.5435 95.7788 39.2281C95.7788 36.9127 95.3535 35.1644 94.5029 33.983C93.6524 32.7781 92.4474 32.1756 90.8881 32.1756C89.3287 32.1756 87.7812 33.1915 86.2455 35.2234C84.7334 37.2553 83.9773 39.8424 83.9773 42.9847C83.9773 47.521 85.6784 49.7892 89.0807 49.7892ZM111.864 30.7935C114.298 23.233 116.779 16.9011 119.307 11.7977L123.701 12.1521C123.441 12.9082 122.804 14.7274 121.788 17.6099C119.59 23.9654 118.173 28.3599 117.535 30.7935H123.099L122.532 33.1325H116.791C114.617 39.8424 113.53 43.9298 113.53 45.3946C113.53 46.8359 113.672 47.5565 113.955 47.5565C114.263 47.5565 114.534 47.4974 114.771 47.3793C115.408 47.0249 116.779 45.3001 118.882 42.2051L120.335 43.5163C118.752 46.3988 117.121 48.537 115.444 49.9309C113.766 51.3013 112.384 51.9864 111.297 51.9864C110.211 51.9864 109.384 51.6084 108.817 50.8524C108.273 50.0963 108.002 49.1276 108.002 47.9463C108.002 44.9457 109.053 40.0078 111.156 33.1325H107.435L108.002 30.7935H111.864ZM145.635 47.273C144.477 48.6669 142.941 49.801 141.027 50.6752C139.114 51.5493 136.905 51.9864 134.4 51.9864C131.896 51.9864 129.769 51.2422 128.021 49.7537C126.296 48.2653 125.434 46.3751 125.434 44.0834C125.434 43.8235 125.481 43.3391 125.576 42.6303C126.544 36.1331 128.305 29.0215 130.856 21.2956C133.408 13.5461 136.149 7.76942 139.078 3.96556H145.103C143.331 5.95018 141.205 10.1675 138.724 16.6176C136.267 23.0676 134.282 29.4231 132.77 35.6841C135.629 31.9039 138.842 30.0138 142.41 30.0138C144.631 30.0138 146.332 30.7698 147.513 32.2819C148.718 33.7704 149.32 35.4833 149.32 37.4207C149.32 39.3581 149.001 41.1419 148.364 42.7721C147.726 44.3787 146.816 45.879 145.635 47.273ZM131.671 42.6303C131.482 43.6227 131.388 44.5913 131.388 45.5364C131.388 46.4578 131.73 47.4029 132.416 48.3716C133.101 49.3166 134.152 49.7892 135.57 49.7892C136.987 49.7892 138.287 49.1749 139.468 47.9463C141.736 45.56 142.87 42.4059 142.87 38.4839C142.87 36.8773 142.599 35.566 142.055 34.5501C141.512 33.5105 140.673 32.9907 139.539 32.9907C138.405 32.9907 136.987 33.9003 135.286 35.7196C133.609 37.5388 132.404 39.8424 131.671 42.6303ZM173.77 30.7935H179.298L176.499 41.3899C176.05 42.8784 175.825 44.2369 175.825 45.4655C175.825 46.6705 176.038 47.273 176.463 47.273C176.889 47.273 177.467 46.9067 178.2 46.1743C178.956 45.4183 179.594 44.6622 180.114 43.9062L180.929 42.7721L182.453 44.1897C181.673 45.7018 180.681 47.0839 179.476 48.3361C177.137 50.7697 175.105 51.9864 173.38 51.9864C171.348 51.9864 170.332 50.4153 170.332 47.273C170.332 46.7532 170.356 46.3633 170.403 46.1034C170.049 47.3084 169.375 48.3716 168.383 49.293C166.493 51.0886 164.355 51.9864 161.968 51.9864C159.606 51.9864 157.704 51.1831 156.263 49.5765C154.845 47.9463 154.136 45.9144 154.136 43.4809C154.136 39.7007 155.365 36.5111 157.822 33.9122C160.279 31.3132 163.162 30.0138 166.469 30.0138C168.123 30.0138 169.493 30.4745 170.58 31.3959C171.667 32.2937 172.376 33.4751 172.707 34.9399L173.77 30.7935ZM167.851 33.0616C166.481 33.0616 165.193 33.6405 163.989 34.7982C162.807 35.9322 161.898 37.3144 161.26 38.9446C160.622 40.5512 160.303 42.1224 160.303 43.6581C160.303 45.1938 160.634 46.4342 161.295 47.3793C161.98 48.3243 163.02 48.7969 164.414 48.7969C165.831 48.7969 167.107 48.1589 168.241 46.8831C170.391 44.426 171.466 41.5081 171.466 38.1295C171.466 34.7509 170.261 33.0616 167.851 33.0616ZM199.566 4.28451H205.307C204.291 6.03287 202.732 9.91944 200.629 15.9442C198.527 21.9453 196.601 27.9937 194.853 34.0894C193.128 40.1614 192.266 43.8825 192.266 45.2529C192.266 46.5996 192.431 47.273 192.762 47.273C193.754 47.273 195.302 45.7727 197.404 42.7721L198.893 44.1897C197.853 45.9853 196.731 47.4974 195.526 48.726C193.4 50.8996 191.675 51.9864 190.352 51.9864C187.942 51.9864 186.737 50.5334 186.737 47.6273C186.737 43.3037 188.166 36.4874 191.025 27.1786C193.908 17.8698 196.755 10.2384 199.566 4.28451ZM215.971 4.28451H221.712C220.696 6.03287 219.137 9.91944 217.034 15.9442C214.931 21.9453 213.006 27.9937 211.257 34.0894C209.533 40.1614 208.67 43.8825 208.67 45.2529C208.67 46.5996 208.836 47.273 209.166 47.273C210.159 47.273 211.706 45.7727 213.809 42.7721L215.297 44.1897C214.258 45.9853 213.136 47.4974 211.931 48.726C209.804 50.8996 208.08 51.9864 206.756 51.9864C204.347 51.9864 203.142 50.5334 203.142 47.6273C203.142 43.3037 204.571 36.4874 207.43 27.1786C210.312 17.8698 213.159 10.2384 215.971 4.28451Z" fill="#10437A"/>
</svg>
